<svg viewBox="0 0 25 24" fill="none" xmlns="http://www.w3.org/2000/svg">
<path fill-rule="evenodd" clip-rule="evenodd" d="M7.89318 1.066C9.06374 1.012 9.43696 1 12.4187 1C15.4005 1 15.7737 1.013 16.9433 1.066C18.1128 1.119 18.9112 1.306 19.6097 1.577C20.3412 1.854 21.0048 2.287 21.5537 2.847C22.1125 3.396 22.5436 4.06 22.819 4.794C23.0905 5.494 23.2761 6.294 23.33 7.464C23.3838 8.639 23.3958 9.013 23.3958 12C23.3958 14.988 23.3828 15.362 23.33 16.535C23.2771 17.705 23.0905 18.505 22.819 19.205C22.5436 19.9391 22.1118 20.6042 21.5537 21.154C21.0048 21.714 20.3412 22.146 19.6097 22.422C18.9112 22.694 18.1128 22.88 16.9453 22.934C15.7737 22.988 15.4005 23 12.4187 23C9.43696 23 9.06374 22.987 7.89318 22.934C6.72562 22.881 5.92729 22.694 5.22874 22.422C4.49619 22.146 3.83248 21.7133 3.2838 21.154C2.72535 20.6047 2.29319 19.9399 2.01745 19.206C1.74701 18.506 1.5614 17.706 1.50751 16.536C1.45363 15.361 1.44165 14.987 1.44165 12C1.44165 9.012 1.45462 8.638 1.50751 7.466C1.5604 6.294 1.74701 5.494 2.01745 4.794C2.29359 4.06008 2.72609 3.39531 3.2848 2.846C3.8327 2.2865 4.49575 1.85344 5.22775 1.577C5.92629 1.306 6.72462 1.12 7.89218 1.066H7.89318ZM16.8545 3.046C15.6969 2.993 15.3496 2.982 12.4187 2.982C9.48785 2.982 9.14058 2.993 7.98299 3.046C6.91223 3.095 6.33144 3.274 5.94425 3.425C5.43232 3.625 5.06608 3.862 4.68189 4.247C4.31769 4.60205 4.03741 5.03428 3.8616 5.512C3.71091 5.9 3.53229 6.482 3.48339 7.555C3.4305 8.715 3.41952 9.063 3.41952 12C3.41952 14.937 3.4305 15.285 3.48339 16.445C3.53229 17.518 3.71091 18.1 3.8616 18.488C4.03723 18.965 4.31765 19.398 4.68189 19.753C5.03615 20.118 5.46824 20.399 5.94425 20.575C6.33144 20.726 6.91223 20.905 7.98299 20.954C9.14058 21.007 9.48685 21.018 12.4187 21.018C15.3506 21.018 15.6969 21.007 16.8545 20.954C17.9252 20.905 18.506 20.726 18.8932 20.575C19.4051 20.375 19.7714 20.138 20.1556 19.753C20.5198 19.398 20.8002 18.965 20.9759 18.488C21.1266 18.1 21.3052 17.518 21.3541 16.445C21.407 15.285 21.4179 14.937 21.4179 12C21.4179 9.063 21.407 8.715 21.3541 7.555C21.3052 6.482 21.1266 5.9 20.9759 5.512C20.7763 4.999 20.5398 4.632 20.1556 4.247C19.8012 3.88207 19.3699 3.60121 18.8932 3.425C18.506 3.274 17.9252 3.095 16.8545 3.046ZM11.0167 15.391C11.7997 15.7176 12.6716 15.7617 13.4834 15.5157C14.2953 15.2697 14.9967 14.7489 15.468 14.0422C15.9392 13.3356 16.151 12.4869 16.0672 11.6411C15.9833 10.7953 15.6091 10.005 15.0083 9.405C14.6254 9.02148 14.1623 8.72781 13.6525 8.54515C13.1427 8.36248 12.5988 8.29536 12.06 8.34862C11.5212 8.40187 11.0008 8.57418 10.5365 8.85313C10.0721 9.13208 9.67521 9.51074 9.37439 9.96185C9.07358 10.413 8.87632 10.9253 8.79681 11.462C8.7173 11.9986 8.75753 12.5463 8.91459 13.0655C9.07165 13.5847 9.34164 14.0626 9.70512 14.4647C10.0686 14.8668 10.5165 15.1832 11.0167 15.391ZM8.42906 8.002C8.95299 7.47697 9.57499 7.0605 10.2595 6.77636C10.9441 6.49222 11.6778 6.34597 12.4187 6.34597C13.1597 6.34597 13.8934 6.49222 14.5779 6.77636C15.2625 7.0605 15.8845 7.47697 16.4084 8.002C16.9323 8.52702 17.3479 9.15032 17.6315 9.8363C17.915 10.5223 18.061 11.2575 18.061 12C18.061 12.7425 17.915 13.4777 17.6315 14.1637C17.3479 14.8497 16.9323 15.473 16.4084 15.998C15.3503 17.0583 13.9152 17.654 12.4187 17.654C10.9223 17.654 9.48719 17.0583 8.42906 15.998C7.37094 14.9377 6.77649 13.4995 6.77649 12C6.77649 10.5005 7.37094 9.06234 8.42906 8.002ZM19.3123 7.188C19.4422 7.06527 19.5461 6.91768 19.618 6.75397C19.6899 6.59027 19.7283 6.41377 19.7309 6.23493C19.7335 6.05609 19.7003 5.87855 19.6332 5.71281C19.5661 5.54707 19.4665 5.39651 19.3402 5.27004C19.214 5.14357 19.0638 5.04376 18.8984 4.97652C18.733 4.90928 18.5558 4.87598 18.3774 4.87858C18.1989 4.88119 18.0228 4.91965 17.8594 4.9917C17.696 5.06374 17.5488 5.1679 17.4263 5.298C17.1881 5.55103 17.0577 5.88712 17.0627 6.23493C17.0678 6.58274 17.2079 6.91488 17.4534 7.16084C17.6988 7.40681 18.0303 7.54723 18.3774 7.5523C18.7244 7.55737 19.0598 7.42669 19.3123 7.188Z" fill="white"/>
</svg>
