<svg width="24" height="24" viewBox="0 0 24 24" fill="none" xmlns="http://www.w3.org/2000/svg">
<g clip-path="url(#clip0_703:2)">
<path d="M11.5863 5.26588C13.4185 5.26588 15.145 6.07813 16.4103 7.34788V7.35163C16.4103 6.74188 16.8205 6.28063 17.3875 6.28063H17.5315C18.4263 6.28063 18.6055 7.12438 18.6055 7.39063L18.6093 16.8669C18.547 17.4879 19.2505 17.8089 19.6413 17.4099C21.16 15.8476 22.9803 9.37063 18.6955 5.62063C14.6995 2.12038 9.33628 2.69863 6.48478 4.66363C3.45403 6.75763 1.51678 11.3829 3.39853 15.7299C5.45353 20.4691 11.3283 21.8829 14.8248 20.4729C16.5948 19.7581 17.4108 22.1476 15.571 22.9299C12.7983 24.1126 5.07103 23.9919 1.46203 17.7421C-0.976221 13.5204 -0.847221 6.09388 5.62228 2.24638C10.567 -0.698873 17.0913 0.117127 21.0243 4.22338C25.1343 8.52013 24.8965 16.5594 20.884 19.6846C19.0668 21.1059 16.3683 19.7236 16.3878 17.6529L16.3675 16.9779C15.1023 18.2311 13.4185 18.9661 11.5863 18.9661C7.96153 18.9661 4.77028 15.7741 4.77028 12.1531C4.77028 8.49313 7.96153 5.26738 11.5863 5.26738V5.26588ZM16.1455 11.8914C16.0083 9.23863 14.0395 7.64113 11.6605 7.64113H11.5705C8.82853 7.64113 7.30528 9.80113 7.30528 12.2499C7.30528 14.9956 9.14503 16.7296 11.5593 16.7296C14.254 16.7296 16.0233 14.7579 16.1523 12.4254L16.1455 11.8914Z" fill="white"/>
</g>
<defs>
<clipPath id="clip0_703:2">
<rect width="24" height="24" fill="white"/>
</clipPath>
</defs>
</svg>
