<svg viewBox="0 0 25 24" fill="none" xmlns="http://www.w3.org/2000/svg">
<g clip-path="url(#clip0)">
<path fill-rule="evenodd" clip-rule="evenodd" d="M12.525 0C5.90886 0 0.550049 5.37 0.550049 12C0.550049 17.31 3.97789 21.795 8.73796 23.385C9.33671 23.49 9.56124 23.13 9.56124 22.815C9.56124 22.53 9.54627 21.585 9.54627 20.58C6.53755 21.135 5.75917 19.845 5.51967 19.17C5.38496 18.825 4.80117 17.76 4.29224 17.475C3.87311 17.25 3.27436 16.695 4.27727 16.68C5.2203 16.665 5.89389 17.55 6.11842 17.91C7.19617 19.725 8.91758 19.215 9.60614 18.9C9.71092 18.12 10.0253 17.595 10.3695 17.295C7.70511 16.995 4.92092 15.96 4.92092 11.37C4.92092 10.065 5.38496 8.985 6.14836 8.145C6.02861 7.845 5.60949 6.615 6.26811 4.965C6.26811 4.965 7.27102 4.65 9.56124 6.195C10.5192 5.925 11.5371 5.79 12.555 5.79C13.5729 5.79 14.5907 5.925 15.5487 6.195C17.839 4.635 18.8419 4.965 18.8419 4.965C19.5005 6.615 19.0814 7.845 18.9616 8.145C19.725 8.985 20.1891 10.05 20.1891 11.37C20.1891 15.975 17.3899 16.995 14.7255 17.295C15.1595 17.67 15.5338 18.39 15.5338 19.515C15.5338 21.12 15.5188 22.41 15.5188 22.815C15.5188 23.13 15.7433 23.505 16.3421 23.385C18.7193 22.5807 20.785 21.0497 22.2484 19.0074C23.7118 16.965 24.4993 14.5143 24.5 12C24.5 5.37 19.1412 0 12.525 0Z" fill="white"/>
</g>
<defs>
<clipPath id="clip0">
<rect width="23.95" height="24" fill="white" transform="translate(0.550049)"/>
</clipPath>
</defs>
</svg>
